<svg id="Layer_1" data-name="Layer 1" xmlns="http://www.w3.org/2000/svg" xmlns:xlink="http://www.w3.org/1999/xlink" viewBox="0 0 744.53 281.4"><defs><style>.cls-1,.cls-10,.cls-11,.cls-13,.cls-15,.cls-17,.cls-19,.cls-21,.cls-23,.cls-25,.cls-27,.cls-29,.cls-31,.cls-33,.cls-35,.cls-37,.cls-39,.cls-41,.cls-43,.cls-45,.cls-47,.cls-49,.cls-5,.cls-51,.cls-53,.cls-55,.cls-57,.cls-59,.cls-61,.cls-63,.cls-65,.cls-67,.cls-69,.cls-8{fill:none;}.cls-2,.cls-66{fill:#515254;}.cls-3{clip-path:url(#clip-path);}.cls-4{fill:#facacc;}.cls-12,.cls-14,.cls-16,.cls-18,.cls-20,.cls-22,.cls-24,.cls-26,.cls-28,.cls-30,.cls-32,.cls-34,.cls-36,.cls-38,.cls-4,.cls-40,.cls-42,.cls-44,.cls-46,.cls-48,.cls-50,.cls-52,.cls-54,.cls-56,.cls-58,.cls-6,.cls-60,.cls-62,.cls-64,.cls-66,.cls-7,.cls-9{fill-rule:evenodd;}.cls-5{stroke:#facacc;}.cls-10,.cls-11,.cls-13,.cls-15,.cls-17,.cls-19,.cls-21,.cls-23,.cls-25,.cls-27,.cls-29,.cls-31,.cls-33,.cls-35,.cls-37,.cls-39,.cls-41,.cls-43,.cls-45,.cls-47,.cls-49,.cls-5,.cls-51,.cls-53,.cls-55,.cls-57,.cls-59,.cls-61,.cls-63,.cls-65,.cls-67,.cls-69,.cls-8{stroke-miterlimit:3.86;}.cls-10,.cls-11,.cls-13,.cls-15,.cls-17,.cls-19,.cls-21,.cls-23,.cls-25,.cls-27,.cls-29,.cls-31,.cls-33,.cls-35,.cls-37,.cls-39,.cls-41,.cls-43,.cls-45,.cls-47,.cls-49,.cls-5,.cls-51,.cls-53,.cls-55,.cls-57,.cls-59,.cls-61,.cls-63,.cls-65,.cls-67,.cls-8{stroke-width:0.9px;}.cls-6,.cls-68{fill:#fff;}.cls-7{fill:#92d7e7;}.cls-8{stroke:#92d7e7;}.cls-9{fill:#800059;}.cls-10{stroke:#800059;}.cls-11,.cls-69{stroke:#fff;}.cls-12{fill:#b1c0c9;}.cls-13{stroke:#b1c0c9;}.cls-14{fill:#e2e3e4;}.cls-15{stroke:#e2e3e4;}.cls-16{fill:#f6ec29;}.cls-17{stroke:#f6ec29;}.cls-18{fill:#d5df24;}.cls-19{stroke:#d5df24;}.cls-20{fill:#78411a;}.cls-21{stroke:#78411a;}.cls-22{fill:#8ea3ae;}.cls-23{stroke:#8ea3ae;}.cls-24{fill:#c61d23;}.cls-25{stroke:#c61d23;}.cls-26{fill:#ed6a56;}.cls-27{stroke:#ed6a56;}.cls-28{fill:#c8652d;}.cls-29{stroke:#c8652d;}.cls-30{fill:#ee2824;}.cls-31{stroke:#ee2824;}.cls-32{fill:#c62d2c;}.cls-33{stroke:#c62d2c;}.cls-34{fill:#f9e3b2;}.cls-35{stroke:#f9e3b2;}.cls-36{fill:#d7861d;}.cls-37{stroke:#d7861d;}.cls-38{fill:#f4b699;}.cls-39{stroke:#f4b699;}.cls-40{fill:#f6a2b7;}.cls-41{stroke:#f6a2b7;}.cls-42{fill:#fac8d3;}.cls-43{stroke:#fac8d3;}.cls-44{fill:#8e81b4;}.cls-45{stroke:#8e81b4;}.cls-46{fill:#816f88;}.cls-47{stroke:#816f88;}.cls-48{fill:#5571b6;}.cls-49{stroke:#5571b6;}.cls-50{fill:#869acf;}.cls-51{stroke:#869acf;}.cls-52{fill:#5e62a5;}.cls-53{stroke:#5e62a5;}.cls-54{fill:#366eab;}.cls-55{stroke:#366eab;}.cls-56{fill:#f99d1c;}.cls-57{stroke:#f99d1c;}.cls-58{fill:#4c2a08;}.cls-59{stroke:#4c2a08;}.cls-60{fill:#a9006f;}.cls-61{stroke:#a9006f;}.cls-62{fill:#5a97a7;}.cls-63{stroke:#5a97a7;}.cls-64{fill:#009cc9;}.cls-65{stroke:#009cc9;}.cls-67{stroke:#515254;}.cls-69{stroke-width:0.6px;}</style><clipPath id="clip-path"><rect class="cls-1" width="656.33" height="281.4"/></clipPath></defs><title>GEN</title><path class="cls-2" d="M346.63,117.05a2.9,2.9,0,0,1-2.69,3.19c-2.52,0-5.63-6.64-15.54-6.64-12.6,0-19.4,13.52-19.4,25.7,0,12.35,6,24,20.5,24,10.5,0,13.69-5.88,15.88-5.88,1.51,0,2.52.92,2.52,3,0,2.6-7.73,8.4-18.73,8.4-18.31,0-26.71-13.61-26.71-29.57,0-15.71,8.4-31.25,26-31.25C338.56,108.07,346.63,114.11,346.63,117.05Z"/><path class="cls-2" d="M379.72,108.07c16.88,0,25.37,15.2,25.37,30.41s-8.48,30.41-25.37,30.41-25.37-15.2-25.37-30.41S362.84,108.07,379.72,108.07Zm18.82,30.41c0-11.26-4.79-24.86-18.82-24.86s-18.82,13.61-18.82,24.86,4.79,24.86,18.82,24.86S398.54,149.73,398.54,138.47Z"/><path class="cls-2" d="M422.14,162.83h15.79a2.8,2.8,0,1,1,0,5.54H419.12a3,3,0,0,1-3-3V111.93c0-2.52,1.09-3.86,3-3.86s3,1.34,3,3.86Z"/><path class="cls-2" d="M472.46,108.07c16.88,0,25.37,15.2,25.37,30.41s-8.48,30.41-25.37,30.41-25.37-15.2-25.37-30.41S455.57,108.07,472.46,108.07Zm18.82,30.41c0-11.26-4.79-24.86-18.82-24.86s-18.82,13.61-18.82,24.86,4.79,24.86,18.82,24.86S491.27,149.73,491.27,138.47Z"/><path class="cls-2" d="M551.92,112c.76-2.52,2-3.95,4.45-3.95,2.69,0,5.54.84,6.13,4.7l7.14,47.88c.25,1.51.84,4.7.84,5.46a2.56,2.56,0,0,1-2.86,2.77c-2.18,0-2.86-1.43-3.19-3.61L557,114.62h-.17l-15,50.23c-.92,3-1.76,4-3.61,4s-2.44-1.26-3-3.11l-15.37-51h-.17l-7.48,50.48c-.34,2.18-1,3.61-3.19,3.61a2.56,2.56,0,0,1-2.86-2.77c0-.76.59-3.95.84-5.46l7.14-47.88c.59-3.86,3.44-4.7,6.13-4.7,2.44,0,3.86,1.43,4.62,3.95l13.27,46.37h.17Z"/><path class="cls-2" d="M581,111.76c0-2.1,1-3.19,3.7-3.19h10.84c13,0,17.3,8.23,17.3,15,0,7.06-3.36,10.42-8.48,12.52v.17c8.23,1.34,13.1,6.55,13.1,15,0,9-5.8,17.14-19,17.14H584.68c-2.69,0-3.7-1.09-3.7-3.19Zm6,22.43h8.82c6.22,0,10.92-4.37,10.92-10.42,0-4.87-3.7-9.66-10.75-9.66h-9Zm0,28.64h10.75c8.48,0,13.61-4,13.61-11.76,0-7-5.46-11.84-13.69-11.84H587Z"/><path class="cls-2" d="M634.24,165c0,2.52-1.09,3.86-3,3.86s-3-1.34-3-3.86V111.93c0-2.52,1.09-3.86,3-3.86s3,1.34,3,3.86Z"/><path class="cls-2" d="M649.11,166.11c-.76,1.51-1.26,2.77-3.36,2.77a2.4,2.4,0,0,1-2.69-2.35,7.74,7.74,0,0,1,.59-2.52l19.24-51.58c.76-1.93,1.68-4.37,4.7-4.37s3.95,2.44,4.7,4.37L691.53,164a7.74,7.74,0,0,1,.59,2.52,2.4,2.4,0,0,1-2.69,2.35c-2.1,0-2.77-1.26-3.36-2.77l-3.95-10.75H653.05ZM667.67,116h-.17l-12.43,33.85h25Z"/><g class="cls-3"><path class="cls-4" d="M157.37,1.44a139.44,139.44,0,0,1,30.53,7.16l-14,39.14a97.32,97.32,0,0,0-21.49-4.9Z"/><path class="cls-5" d="M157.37,1.44a139.44,139.44,0,0,1,30.53,7.16l-14,39.14a97.32,97.32,0,0,0-21.49-4.9Z"/><path class="cls-6" d="M187.95,8.61q2.22.79,4.4,1.66L177,48.9q-1.53-.6-3.09-1.15Z"/><path class="cls-7" d="M192.39,10.28q3.37,1.34,6.65,2.84L181.72,50.88q-2.31-1-4.68-2Z"/><path class="cls-8" d="M192.39,10.28q3.37,1.34,6.65,2.84L181.72,50.88q-2.31-1-4.68-2Z"/><path class="cls-7" d="M199.08,13.14A140.11,140.11,0,0,1,229.95,32.5l-26.4,31.95a97.93,97.93,0,0,0-21.79-13.56Z"/><path class="cls-8" d="M199.08,13.14A140.11,140.11,0,0,1,229.95,32.5l-26.4,31.95a97.93,97.93,0,0,0-21.79-13.56Z"/><path class="cls-9" d="M254.95,59.34q1.59,2.23,3.1,4.54L223.38,86.53q-1.06-1.61-2.18-3.18Z"/><path class="cls-10" d="M254.95,59.34q1.59,2.23,3.1,4.54L223.38,86.53q-1.06-1.61-2.18-3.18Z"/><path class="cls-6" d="M258.07,63.91A139.67,139.67,0,0,1,271.88,91l-38.78,14.68a97.77,97.77,0,0,0-9.7-19.08Z"/><path class="cls-11" d="M258.07,63.91A139.67,139.67,0,0,1,271.88,91l-38.78,14.68a97.77,97.77,0,0,0-9.7-19.08Z"/><path class="cls-12" d="M271.89,91a138.47,138.47,0,0,1,4.27,13.21L236.09,115a97.26,97.26,0,0,0-3-9.31Z"/><path class="cls-13" d="M271.89,91a138.47,138.47,0,0,1,4.27,13.21L236.09,115a97.26,97.26,0,0,0-3-9.31Z"/><path class="cls-14" d="M280.93,143.26a140.57,140.57,0,0,1-4.55,33.12L236,165.76a97.86,97.86,0,0,0,3.37-23.83l0-1.6,41.61-.16q0,1.54,0,3.1"/><path class="cls-15" d="M280.93,143.26a140.57,140.57,0,0,1-4.55,33.12L236,165.76a97.86,97.86,0,0,0,3.37-23.83l0-1.6,41.61-.16Q281,141.71,280.93,143.26Z"/><path class="cls-16" d="M276.36,176.42a139.55,139.55,0,0,1-8,22.52l-38.15-17.39a96.77,96.77,0,0,0,5.76-15.75Z"/><path class="cls-17" d="M276.36,176.42a139.55,139.55,0,0,1-8,22.52l-38.15-17.39a96.77,96.77,0,0,0,5.76-15.75Z"/><path class="cls-18" d="M268.31,199a139.44,139.44,0,0,1-7.64,14.41l-35.94-21.75a98.56,98.56,0,0,0,5.44-10Z"/><path class="cls-19" d="M268.31,199a139.44,139.44,0,0,1-7.64,14.41l-35.94-21.75a98.56,98.56,0,0,0,5.44-10Z"/><path class="cls-20" d="M176.54,276.33c-1.32.35-2.64.67-4,1l-9.75-41.61c.92-.2,1.84-.42,2.75-.65Z"/><path class="cls-21" d="M176.54,276.33c-1.32.35-2.64.67-4,1l-9.75-41.61c.92-.2,1.84-.42,2.75-.65Z"/><path class="cls-22" d="M121.71,279.67a139.21,139.21,0,0,1-24-5.45l13.19-41a97.29,97.29,0,0,0,16.63,3.88Z"/><path class="cls-23" d="M121.71,279.67a139.21,139.21,0,0,1-24-5.45l13.19-41a97.29,97.29,0,0,0,16.63,3.88Z"/><path class="cls-24" d="M97.62,274.21q-6.26-2-12.25-4.59l17-39.67q4.13,1.8,8.45,3.22Z"/><path class="cls-25" d="M97.62,274.21q-6.26-2-12.25-4.59l17-39.67q4.13,1.8,8.45,3.22Z"/><path class="cls-26" d="M62.07,256.85,86.27,221a97.75,97.75,0,0,0,16.05,8.88l-17,39.67a139.73,139.73,0,0,1-23.26-12.75"/><path class="cls-27" d="M62.07,256.85,86.27,221a97.75,97.75,0,0,0,16.05,8.88l-17,39.67A139.73,139.73,0,0,1,62.07,256.85Z"/><path class="cls-28" d="M62,256.83q-2.58-1.75-5.08-3.61l25.79-34.7c1.15.86,2.31,1.7,3.49,2.5Z"/><path class="cls-29" d="M62,256.83q-2.58-1.75-5.08-3.61l25.79-34.7c1.15.86,2.31,1.7,3.49,2.5Z"/><path class="cls-18" d="M56.92,253.19a140.76,140.76,0,0,1-14.41-12.35l30.26-30.9a98.42,98.42,0,0,0,9.93,8.56Z"/><path class="cls-19" d="M56.92,253.19a140.76,140.76,0,0,1-14.41-12.35l30.26-30.9a98.42,98.42,0,0,0,9.93,8.56Z"/><path class="cls-30" d="M42.48,240.81a140.62,140.62,0,0,1-30.41-44.13l39.65-17.27a98.14,98.14,0,0,0,21,30.49Z"/><path class="cls-31" d="M42.48,240.81a140.62,140.62,0,0,1-30.41-44.13l39.65-17.27a98.14,98.14,0,0,0,21,30.49Z"/><path class="cls-32" d="M12.05,196.64q-.87-2-1.68-4l40.16-16c.37.94.76,1.86,1.16,2.77Z"/><path class="cls-33" d="M12.05,196.64q-.87-2-1.68-4l40.16-16c.37.94.76,1.86,1.16,2.77Z"/><path class="cls-34" d="M10.36,192.58a139.15,139.15,0,0,1-7.16-24.11l42.33-8.55a97.07,97.07,0,0,0,5,16.65Z"/><path class="cls-35" d="M10.36,192.58a139.15,139.15,0,0,1-7.16-24.11l42.33-8.55a97.07,97.07,0,0,0,5,16.65Z"/><path class="cls-36" d="M.47,138.15a141.7,141.7,0,0,1,1.3-16.78l42.58,5.93a99.4,99.4,0,0,0-.82,11.05q0,2.19,0,4.35l-43.08.9q-.06-2.72,0-5.47"/><path class="cls-37" d="M.47,138.15a141.7,141.7,0,0,1,1.3-16.78l42.58,5.93a99.4,99.4,0,0,0-.82,11.05q0,2.19,0,4.35l-43.08.9Q.42,140.89.47,138.15Z"/><path class="cls-30" d="M1.78,121.32A139.48,139.48,0,0,1,7.43,96.89L48.16,110.3a97.62,97.62,0,0,0-3.79,17Z"/><path class="cls-31" d="M1.78,121.32A139.48,139.48,0,0,1,7.43,96.89L48.16,110.3a97.62,97.62,0,0,0-3.79,17Z"/><path class="cls-38" d="M17.53,73.57q3-5.44,6.39-10.57L59.41,86.66C57.85,89,56.39,91.51,55,94Z"/><path class="cls-39" d="M17.53,73.57q3-5.44,6.39-10.57L59.41,86.66C57.85,89,56.39,91.51,55,94Z"/><path class="cls-40" d="M23.94,63q2.52-3.78,5.28-7.39L63.05,81.46Q61.16,84,59.43,86.63Z"/><path class="cls-41" d="M23.94,63q2.52-3.78,5.28-7.39L63.05,81.46Q61.16,84,59.43,86.63Z"/><path class="cls-40" d="M29.25,55.55A141.24,141.24,0,0,1,54.33,30.2L80.38,63.6a98.58,98.58,0,0,0-17.3,17.83Z"/><path class="cls-41" d="M29.25,55.55A141.24,141.24,0,0,1,54.33,30.2L80.38,63.6a98.58,98.58,0,0,0-17.3,17.83Z"/><path class="cls-42" d="M54.36,30.17Q59.73,26,65.5,22.3L88.13,58q-4,2.59-7.71,5.56Z"/><path class="cls-43" d="M54.36,30.17Q59.73,26,65.5,22.3L88.13,58q-4,2.59-7.71,5.56Z"/><path class="cls-44" d="M65.54,22.27q2.34-1.49,4.75-2.88L91.45,55.94c-1.11.66-2.21,1.34-3.29,2Z"/><path class="cls-45" d="M65.54,22.27q2.34-1.49,4.75-2.88L91.45,55.94c-1.11.66-2.21,1.34-3.29,2Z"/><path class="cls-46" d="M70.32,19.37q2.41-1.4,4.87-2.71L94.86,54q-1.71.93-3.38,1.92Z"/><path class="cls-47" d="M70.32,19.37q2.41-1.4,4.87-2.71L94.86,54q-1.71.93-3.38,1.92Z"/><path class="cls-6" d="M75.23,16.64q5.71-3,11.71-5.51L103,50Q98.87,51.83,94.9,54Z"/><path class="cls-11" d="M75.23,16.64q5.71-3,11.71-5.51L103,50Q98.87,51.83,94.9,54Z"/><path class="cls-48" d="M87,11.11q3.32-1.39,6.73-2.59l14,39.66c-1.58.58-3.14,1.2-4.68,1.85Z"/><path class="cls-49" d="M87,11.11q3.32-1.39,6.73-2.59l14,39.66c-1.58.58-3.14,1.2-4.68,1.85Z"/><path class="cls-50" d="M93.76,8.5a139.34,139.34,0,0,1,29-6.91L128,43.14a97.17,97.17,0,0,0-20.23,5Z"/><path class="cls-51" d="M93.76,8.5a139.34,139.34,0,0,1,29-6.91L128,43.14a97.17,97.17,0,0,0-20.23,5Z"/><path class="cls-44" d="M157.33,1.43l-5,41.41q-4.5-.5-9.12-.58c-1.21,0-2.41,0-3.61,0L139.2.46c1.35,0,2.7,0,4.06,0a140.31,140.31,0,0,1,14.07,1"/><path class="cls-45" d="M157.33,1.43l-5,41.41q-4.5-.5-9.12-.58c-1.21,0-2.41,0-3.61,0L139.2.46c1.35,0,2.7,0,4.06,0A140.31,140.31,0,0,1,157.33,1.43Z"/><path class="cls-52" d="M139.16.46l.41,41.79c-1.54,0-3.07.09-4.58.19L132.61.68q3.25-.18,6.55-.22"/><path class="cls-53" d="M139.16.46l.41,41.79c-1.54,0-3.07.09-4.58.19L132.61.68Q135.86.5,139.16.46Z"/><path class="cls-48" d="M122.75,1.58q3-.38,6-.63l3.52,41.71c-1.4.13-2.8.29-4.19.48Z"/><path class="cls-49" d="M122.75,1.58q3-.38,6-.63l3.52,41.71c-1.4.13-2.8.29-4.19.48Z"/><path class="cls-54" d="M132.57.68l2.38,41.77c-.88.05-1.76.13-2.64.21L128.79.95q1.88-.16,3.78-.27"/><path class="cls-55" d="M132.57.68l2.38,41.77c-.88.05-1.76.13-2.64.21L128.79.95Q130.67.79,132.57.68Z"/><path class="cls-34" d="M17.51,73.61,55,94.07q-.41.76-.8,1.53L16.33,75.81c.39-.74.78-1.47,1.18-2.2"/><path class="cls-35" d="M17.51,73.61,55,94.07q-.41.76-.8,1.53L16.33,75.81C16.71,75.07,17.11,74.34,17.51,73.61Z"/><path class="cls-56" d="M7.44,96.85q1.17-3.56,2.52-7l39.91,15.55q-.92,2.42-1.71,4.89Z"/><path class="cls-57" d="M7.44,96.85q1.17-3.56,2.52-7l39.91,15.55q-.92,2.42-1.71,4.89Z"/><path class="cls-36" d="M49.89,105.34,10,89.78a140.07,140.07,0,0,1,6.33-13.93L54.2,95.64a97.68,97.68,0,0,0-4.31,9.7"/><path class="cls-37" d="M49.89,105.34,10,89.78a140.07,140.07,0,0,1,6.33-13.93L54.2,95.64A97.68,97.68,0,0,0,49.89,105.34Z"/><path class="cls-58" d="M121.75,279.68l5.77-42.61a99,99,0,0,0,12.13,1q4.79.09,9.47-.27l3.78,42.67a143.36,143.36,0,0,1-14.75.5,141.63,141.63,0,0,1-16.39-1.25"/><path class="cls-59" d="M121.75,279.68l5.77-42.61a99,99,0,0,0,12.13,1q4.79.09,9.47-.27l3.78,42.67a143.36,143.36,0,0,1-14.75.5A141.63,141.63,0,0,1,121.75,279.68Z"/><path class="cls-20" d="M172.53,277.33a139.86,139.86,0,0,1-19.59,3.1l-3.78-42.67a97.73,97.73,0,0,0,13.63-2Z"/><path class="cls-21" d="M172.53,277.33a139.86,139.86,0,0,1-19.59,3.1l-3.78-42.67a97.73,97.73,0,0,0,13.63-2Z"/><path class="cls-7" d="M230,32.53A140.68,140.68,0,0,1,244.12,46l-30.57,28a98.67,98.67,0,0,0-10-9.44Z"/><path class="cls-8" d="M230,32.53A140.68,140.68,0,0,1,244.12,46l-30.57,28a98.67,98.67,0,0,0-10-9.44Z"/><path class="cls-60" d="M254.92,59.3l-33.75,24a98.17,98.17,0,0,0-7.59-9.36l30.57-28a140.7,140.7,0,0,1,10.78,13.3"/><path class="cls-61" d="M254.92,59.3l-33.75,24a98.17,98.17,0,0,0-7.59-9.36l30.57-28A140.7,140.7,0,0,1,254.92,59.3Z"/><path class="cls-6" d="M3.19,168.42Q2,162.48,1.31,156.37l42.86-4.85q.49,4.24,1.34,8.36Z"/><path class="cls-11" d="M3.19,168.42Q2,162.48,1.31,156.37l42.86-4.85q.49,4.24,1.34,8.36Z"/><path class="cls-56" d="M.48,143.66l43.08-.9q.11,4.41.61,8.72L1.31,156.32q-.69-6.25-.83-12.66"/><path class="cls-57" d="M.48,143.66l43.08-.9q.11,4.41.61,8.72L1.31,156.32Q.62,150.07.48,143.66Z"/><path class="cls-16" d="M260.65,213.42a140.25,140.25,0,0,1-17,22.49l-31-28.62a98.22,98.22,0,0,0,12-15.62Z"/><path class="cls-17" d="M260.65,213.42a140.25,140.25,0,0,1-17,22.49l-31-28.62a98.22,98.22,0,0,0,12-15.62Z"/><path class="cls-14" d="M176.58,276.32l-11-41.28a97.87,97.87,0,0,0,47-27.72l31,28.62a140.22,140.22,0,0,1-67.07,40.38"/><path class="cls-15" d="M176.58,276.32l-11-41.28a97.87,97.87,0,0,0,47-27.72l31,28.62A140.22,140.22,0,0,1,176.58,276.32Z"/><path class="cls-62" d="M238.56,127.7l41.18-5.48A141.29,141.29,0,0,1,281,140.12l-41.61.18a98.62,98.62,0,0,0-.78-12.6"/><path class="cls-63" d="M238.56,127.7l41.18-5.48A141.29,141.29,0,0,1,281,140.12l-41.61.18A98.62,98.62,0,0,0,238.56,127.7Z"/><path class="cls-64" d="M276.17,104.26a139.5,139.5,0,0,1,3.57,17.92l-41.19,5.48A97,97,0,0,0,236.1,115Z"/><path class="cls-65" d="M276.17,104.26a139.5,139.5,0,0,1,3.57,17.92l-41.19,5.48A97,97,0,0,0,236.1,115Z"/><path class="cls-66" d="M238.74,140.16a97.53,97.53,0,1,0-97.53,97.53,97.53,97.53,0,0,0,97.53-97.53"/><circle class="cls-67" cx="141.22" cy="140.16" r="97.52"/><path class="cls-68" d="M112.93,134.63c4.2,0,5.12,2.18,5.12,4.62,0,23.18-11.26,29.57-24.36,29.57-18.65,0-26.21-15-26.21-30.41,0-14.87,8.4-30.41,26-30.41,11.76,0,20.41,6.64,20.41,9.15a2.89,2.89,0,0,1-2.94,3.19c-2.77,0-6.89-6.8-17.14-6.8C79.92,113.55,74,126.91,74,138.41c0,13.52,6.47,24.86,20.16,24.86,13,0,17.81-11.09,17.81-23.1H101.42a2.8,2.8,0,1,1,0-5.54Z"/><path class="cls-69" d="M112.93,134.63c4.2,0,5.12,2.18,5.12,4.62,0,23.18-11.26,29.57-24.36,29.57-18.65,0-26.21-15-26.21-30.41,0-14.87,8.4-30.41,26-30.41,11.76,0,20.41,6.64,20.41,9.15a2.89,2.89,0,0,1-2.94,3.19c-2.77,0-6.89-6.8-17.14-6.8C79.92,113.55,74,126.91,74,138.41c0,13.52,6.47,24.86,20.16,24.86,13,0,17.81-11.09,17.81-23.1H101.42a2.8,2.8,0,1,1,0-5.54Z"/><path class="cls-68" d="M133.43,162.78h18.31a2.8,2.8,0,1,1,0,5.54H131.07c-2.69,0-3.7-1.09-3.7-3.19V111.7c0-2.1,1-3.19,3.7-3.19H150.9a2.8,2.8,0,1,1,0,5.54H133.51v21.67h16.63a2.8,2.8,0,1,1,0,5.54H133.43Z"/><path class="cls-69" d="M133.43,162.78h18.31a2.8,2.8,0,1,1,0,5.54H131.07c-2.69,0-3.7-1.09-3.7-3.19V111.7c0-2.1,1-3.19,3.7-3.19H150.9a2.8,2.8,0,1,1,0,5.54H133.51v21.67h16.63a2.8,2.8,0,1,1,0,5.54H133.43Z"/><path class="cls-68" d="M172.4,165c0,2.52-1.09,3.86-3,3.86s-3-1.34-3-3.86V111.54c0-2.35,1.34-3.53,3-3.53a4.25,4.25,0,0,1,3.53,2.18l32.09,47h.17V111.87c0-2.52,1.09-3.86,3-3.86s3,1.34,3,3.86v53.26c0,2.85-1.18,3.69-2.86,3.69s-2.27-.76-3.27-2.18L172.57,119.1h-.17Z"/><path class="cls-69" d="M172.4,165c0,2.52-1.09,3.86-3,3.86s-3-1.34-3-3.86V111.54c0-2.35,1.34-3.53,3-3.53a4.25,4.25,0,0,1,3.53,2.18l32.09,47h.17V111.87c0-2.52,1.09-3.86,3-3.86s3,1.34,3,3.86v53.26c0,2.85-1.18,3.69-2.86,3.69s-2.27-.76-3.27-2.18L172.57,119.1h-.17Z"/></g></svg>